<svg version="1.1" id="Layer_1" xmlns="http://www.w3.org/2000/svg" xmlns:xlink="http://www.w3.org/1999/xlink" x="0px" y="0px"
	 width="100%" viewBox="0 0 822 353" enable-background="new 0 0 822 353" xml:space="preserve">
<path fill="#30A2FF" opacity="1.000000" stroke="none" 
	d="
M509.000000,354.000000 
	C339.333344,354.000000 170.166702,354.000000 1.000045,354.000000 
	C1.000030,236.333374 1.000030,118.666733 1.000015,1.000077 
	C274.999939,1.000051 548.999878,1.000051 822.999878,1.000026 
	C822.999878,118.666588 822.999878,236.333176 822.999939,353.999878 
	C718.500000,354.000000 614.000000,354.000000 509.000000,354.000000 
M567.500000,284.005554 
	C640.909912,284.005554 714.319885,284.005554 787.761597,284.005554 
	C787.761597,215.356888 787.761597,147.432617 787.761597,79.268066 
	C537.161621,79.268066 286.805511,79.268066 36.326660,79.268066 
	C36.326660,147.584244 36.326660,215.626343 36.326660,284.005554 
	C213.272430,284.005554 389.886230,284.005554 567.500000,284.005554 
z"/>
<path fill="#FDFDFD" opacity="1.000000" stroke="none" 
	d="
M567.000000,284.005554 
	C389.886230,284.005554 213.272430,284.005554 36.326660,284.005554 
	C36.326660,215.626343 36.326660,147.584244 36.326660,79.268066 
	C286.805511,79.268066 537.161621,79.268066 787.761597,79.268066 
	C787.761597,147.432617 787.761597,215.356888 787.761597,284.005554 
	C714.319885,284.005554 640.909912,284.005554 567.000000,284.005554 
M747.466614,226.782883 
	C748.226196,225.373352 748.985840,223.963806 749.840698,221.983429 
	C750.240051,221.326843 750.639343,220.670273 751.713440,219.905991 
	C752.502014,217.608475 753.290588,215.310959 754.102478,212.339401 
	C754.300110,211.939850 754.497742,211.540298 755.290588,210.834488 
	C759.199707,202.331558 758.328064,193.447403 757.163208,184.608414 
	C756.857605,182.289810 755.545227,180.103867 754.350464,177.283401 
	C754.280151,176.846573 754.209839,176.409729 754.622925,175.561157 
	C753.445862,173.364029 752.268738,171.166901 750.799500,168.450287 
	C750.464844,167.738602 750.130188,167.026901 749.945618,165.586502 
	C748.641174,164.053513 747.336731,162.520523 745.719849,160.853516 
	C745.719849,160.853516 745.612366,160.531113 745.771667,159.758179 
	C745.018494,159.280533 744.265320,158.802872 743.051025,158.068069 
	C742.718079,157.660324 742.385071,157.252579 742.029968,156.146576 
	C739.892883,154.847488 737.755859,153.548401 735.251770,152.232040 
	C735.251770,152.232040 735.018250,151.948395 734.941101,151.231461 
	C732.089233,150.327576 729.237305,149.423706 725.621582,148.486725 
	C724.105469,148.237061 722.589355,147.987411 720.856079,147.020340 
	C717.875366,147.240601 714.894653,147.460846 711.293762,147.900299 
	C710.857849,147.908142 710.421875,147.915970 709.678589,147.492081 
	C709.110168,147.714233 708.541809,147.936371 707.522278,148.364426 
	C707.201477,148.479950 706.874878,148.499573 705.747498,148.115250 
	C703.155273,149.381973 700.563049,150.648697 697.541199,152.309647 
	C696.842041,152.640991 696.142944,152.972336 694.688354,153.126099 
	C693.191162,154.523499 691.694031,155.920914 689.920654,157.886948 
	C688.584839,159.244843 687.249023,160.602753 685.164490,162.005676 
	C684.573120,163.203537 683.981750,164.401413 683.361633,165.901291 
	C683.361633,165.901291 683.086182,166.028381 682.356873,166.053726 
	C678.959656,169.329102 677.415161,173.276474 678.062744,178.668015 
	C677.937012,179.089966 677.811340,179.511932 677.080933,180.017838 
	C676.993958,180.999863 676.906982,181.981903 676.896973,183.712402 
	C676.731201,184.440887 676.565430,185.169388 675.780518,186.169968 
	C675.776917,188.097473 675.773315,190.024963 675.978088,192.756042 
	C675.912598,193.854233 675.847046,194.952423 675.240417,196.547134 
	C675.639832,198.731934 676.039246,200.916748 676.743164,203.788940 
	C676.797913,204.533127 676.852661,205.277298 676.372803,206.414581 
	C677.093262,208.307037 677.813782,210.199493 678.893188,212.679031 
	C679.085388,213.572495 679.277588,214.465942 679.195129,216.118378 
	C680.981018,220.604309 681.642578,225.823074 687.479065,228.335205 
	C688.309814,229.243591 689.140564,230.151993 689.941162,231.777710 
	C693.135010,236.259338 697.145996,239.310165 703.595215,239.191788 
	C704.394470,239.470108 705.193665,239.748428 706.137756,240.789368 
	C710.344971,241.373352 714.548340,242.349197 718.760803,242.390106 
	C721.175110,242.413589 723.604126,240.918488 726.560181,239.809647 
	C727.158569,239.713348 727.756958,239.617050 729.128296,239.848816 
	C731.779358,238.356308 734.430359,236.863800 737.514526,234.958191 
	C738.195007,234.553299 738.875427,234.148407 740.296875,233.897583 
	C741.163269,232.888092 742.029663,231.878616 742.978333,230.987808 
	C742.978333,230.987808 742.869507,230.892868 743.592957,230.942993 
	C744.637390,229.538284 745.681824,228.133591 747.002441,226.990967 
	C747.002441,226.990967 746.722107,226.734482 747.466614,226.782883 
M432.180206,153.899887 
	C429.020233,155.106018 425.897858,156.344391 426.217316,161.219360 
	C425.730804,161.799957 425.244324,162.380539 424.008789,162.954575 
	C423.133728,164.862198 422.258667,166.769806 421.439087,169.171432 
	C421.382507,169.520584 421.206085,169.791779 420.212799,170.086914 
	C419.422882,173.044815 418.632965,176.002716 417.931458,179.663239 
	C417.733795,180.084106 417.536133,180.504990 416.707703,181.230194 
	C412.902405,193.144913 415.568970,204.766327 418.410675,216.351944 
	C418.583923,217.058197 419.859924,217.493973 421.060181,218.547699 
	C421.436432,219.566116 421.812714,220.584534 422.018036,222.356033 
	C422.961487,223.579178 423.904907,224.802322 425.173920,226.241776 
	C425.173920,226.241776 425.176971,226.632629 425.073242,227.387253 
	C426.348663,228.598068 427.624084,229.808884 429.221588,231.097916 
	C429.221588,231.097916 429.295563,231.421036 429.132141,232.172302 
	C434.968719,240.247665 443.567078,242.507034 452.776886,242.777664 
	C455.488464,242.857330 458.257507,240.981186 461.396088,239.694702 
	C461.721558,239.684219 462.047058,239.673737 463.162872,239.904419 
	C465.115082,238.639389 467.067291,237.374374 469.149536,235.766403 
	C469.149536,235.766403 469.516266,235.764130 470.284698,236.010468 
	C471.987854,237.352585 473.615112,239.719406 475.407867,239.852264 
	C481.792480,240.325363 488.238495,240.185486 494.650391,239.963394 
	C497.054169,239.880127 498.710541,238.601242 496.307831,235.158829 
	C496.305664,232.493179 496.293304,229.827484 496.302856,227.161865 
	C496.392761,202.010788 496.486450,176.859726 496.867340,150.827438 
	C496.013397,149.908356 495.179474,148.217056 494.302307,148.194321 
	C488.167236,148.035324 482.019257,148.133911 475.887329,148.412552 
	C475.158936,148.445663 474.502625,150.065582 473.919891,151.630554 
	C473.789124,152.066010 473.658356,152.501465 472.848358,152.897964 
	C471.721680,152.281952 470.659454,151.451843 469.456390,151.089615 
	C465.669525,149.949478 461.829773,148.985031 457.340607,148.065643 
	C456.906830,147.949402 456.473083,147.833160 455.821747,146.983719 
	C452.415466,145.923843 448.960938,144.345459 445.438507,148.164413 
	C444.841797,148.229050 444.245056,148.293701 442.828857,148.096405 
	C438.851135,148.873535 434.492859,149.005646 432.989410,153.992065 
	C432.989410,153.992065 432.920563,153.953888 432.180206,153.899887 
M224.220154,197.105484 
	C224.202148,171.794479 224.103104,146.483002 224.250443,121.172958 
	C224.273468,117.216896 223.152115,115.997948 219.176682,116.113503 
	C209.692993,116.389160 200.188751,116.420326 190.707352,116.108307 
	C186.300522,115.963280 185.085327,117.293991 185.106079,121.722382 
	C185.280151,158.855774 185.200348,195.990326 185.197296,233.124542 
	C185.197220,233.957138 184.888977,234.989731 185.268005,235.580078 
	C186.022629,236.755432 187.134888,238.552643 188.136383,238.577087 
	C193.774094,238.714630 199.422791,238.401596 205.882935,238.657928 
	C226.366409,238.721954 246.850174,238.744232 267.333038,238.892838 
	C270.585419,238.916443 271.763580,237.654449 271.730713,234.470566 
	C271.624054,224.145172 271.543854,213.815369 271.744568,203.492935 
	C271.824432,199.386902 270.487701,198.017868 266.281372,198.078644 
	C252.296478,198.280762 238.305847,198.085938 224.220154,197.105484 
M351.786438,171.914642 
	C350.614960,169.260941 349.443481,166.607224 347.927032,163.459396 
	C347.782745,162.881439 347.638489,162.303482 347.812073,160.905640 
	C345.627319,155.588882 343.442535,150.272141 340.905792,144.466278 
	C340.748840,143.891495 340.591888,143.316696 340.778992,141.925781 
	C339.236633,138.274536 337.694244,134.623306 335.864197,130.454178 
	C335.731232,129.880188 335.598297,129.306198 335.749054,127.930183 
	C334.962311,125.229362 334.049652,122.557533 333.419525,119.820656 
	C332.562164,116.096886 330.405548,114.734962 326.598938,114.880379 
	C320.281128,115.121719 313.944855,115.057098 307.621490,114.906792 
	C304.142426,114.824089 302.936737,116.279228 302.942383,119.666359 
	C303.006470,158.127716 303.014740,196.589249 302.944275,235.050583 
	C302.937714,238.633774 304.099548,240.258881 307.854095,240.097687 
	C312.507446,239.897888 317.193848,239.800461 321.832794,240.128265 
	C326.106934,240.430283 327.152924,238.732086 327.115356,234.688080 
	C326.936096,215.375763 327.017059,196.060822 327.062103,176.746948 
	C327.066956,174.658768 327.437744,172.571426 327.662903,170.233551 
	C329.399689,172.545212 330.697845,174.273041 332.366211,176.519287 
	C332.655243,177.527954 332.944305,178.536621 333.038940,180.300583 
	C333.940582,181.881882 334.842224,183.463165 336.075012,185.663055 
	C336.574249,187.190262 337.073486,188.717468 337.263458,191.029648 
	C339.220276,196.439636 341.028076,201.910141 343.191376,207.236267 
	C344.431854,210.290298 346.249512,213.109894 348.137787,216.443726 
	C348.186981,216.784836 348.236206,217.125946 348.070862,218.317307 
	C349.271515,219.520004 350.352448,221.601135 351.692169,221.783798 
	C360.856628,223.033264 362.232422,222.127029 366.129700,213.668060 
	C366.475586,212.917267 366.987396,212.220825 367.209412,211.438751 
	C368.355408,207.401657 369.432098,203.344879 370.583099,198.619293 
	C371.412598,196.750961 372.242096,194.882629 373.771393,192.908646 
	C375.571533,188.896378 377.360168,184.878876 379.174866,180.873184 
	C381.258179,176.274399 383.364655,171.686066 385.736603,167.861206 
	C385.753448,179.114853 385.824432,190.368759 385.772034,201.622070 
	C385.718170,213.191986 385.543823,224.761337 385.106995,237.207336 
	C385.930511,238.141434 386.724426,239.852173 387.582367,239.884888 
	C393.626587,240.115494 399.686707,240.082230 405.733459,239.882675 
	C406.408813,239.860397 407.032318,238.267731 407.563354,236.549606 
	C407.545013,206.007965 407.505157,175.466324 407.522125,144.924713 
	C407.526917,136.301315 407.698120,127.678017 408.386322,118.618156 
	C409.403381,115.748756 407.674042,114.997955 405.390503,114.978989 
	C397.896454,114.916771 390.400391,114.890381 382.908264,115.026421 
	C381.753693,115.047386 379.855804,115.744820 379.590302,116.552841 
	C377.397491,123.226196 375.508575,129.999405 373.510223,137.338318 
	C373.272736,137.880295 373.035248,138.422287 372.105133,139.101761 
	C371.219147,141.965881 370.333160,144.830002 369.483398,148.179184 
	C369.431732,148.517975 369.269775,148.791412 368.282623,149.104340 
	C367.176453,152.733383 366.070251,156.362427 364.968597,160.638184 
	C364.619080,161.420242 364.269562,162.202301 363.213043,163.092743 
	C360.925659,168.598694 358.638245,174.104630 356.226624,179.909546 
	C354.700684,178.029236 353.456177,176.495743 351.869629,174.466507 
	C351.749969,173.882019 351.630310,173.297531 351.786438,171.914642 
M79.573502,238.703110 
	C87.403915,238.704300 95.242706,238.490356 103.061325,238.794632 
	C107.164223,238.954285 108.608810,237.785980 108.502022,233.535477 
	C108.230133,222.712692 108.490128,211.877533 108.340408,201.050049 
	C108.295609,197.809891 109.350388,196.564987 112.658295,196.708099 
	C117.647217,196.923965 122.667084,197.009033 127.645500,196.697495 
	C131.587418,196.450806 132.400665,198.096329 132.314682,201.650482 
	C132.105270,210.308914 132.257660,218.975967 132.253098,227.639542 
	C132.247269,238.704208 132.242508,238.704178 143.266312,238.704102 
	C152.382385,238.704041 161.498459,238.704086 170.846588,238.704086 
	C170.846588,197.641251 170.846588,157.246506 170.846588,116.266884 
	C158.608307,116.266884 146.660950,116.184608 134.720886,116.441124 
	C133.871567,116.459373 132.433853,118.934418 132.367325,120.319809 
	C132.095932,125.971504 132.250809,131.643707 132.250092,137.308350 
	C132.249252,144.074326 132.249878,150.840302 132.249878,157.792725 
	C123.980232,157.792725 116.425667,157.792725 108.257446,157.792725 
	C108.257446,143.847992 108.257446,130.272690 108.257446,116.612366 
	C95.093208,116.612366 82.550255,116.612366 69.889343,116.612366 
	C69.889343,157.407394 69.889343,197.810822 69.889343,238.704620 
	C73.015457,238.704620 75.808105,238.704620 79.573502,238.703110 
M666.996765,231.377792 
	C666.997559,230.378830 666.999268,229.379883 666.999146,228.380920 
	C666.993652,192.750229 666.926575,157.119293 667.065979,121.489166 
	C667.082031,117.374535 665.972656,115.806198 661.750427,116.156807 
	C657.616211,116.500122 653.418579,116.443192 649.273132,116.179230 
	C645.710510,115.952377 644.659790,117.324471 644.710754,120.761772 
	C644.858765,130.749008 644.740784,140.740540 644.681335,150.730118 
	C644.671265,152.423798 644.434021,154.116119 644.275085,156.150085 
	C643.091675,155.650269 642.608521,155.543625 642.241516,155.277161 
	C625.547302,143.158051 606.479248,146.212082 595.866394,163.904633 
	C583.856079,183.926910 583.944763,204.865936 595.652466,225.076630 
	C603.267395,238.222092 616.384399,243.595490 630.113770,239.987350 
	C634.939453,238.719147 639.344604,235.850937 643.906799,233.729553 
	C645.438538,238.763229 645.438538,238.763397 651.465637,238.765976 
	C654.462646,238.767258 657.459595,238.763031 660.456604,238.769638 
	C666.933167,238.783890 666.933167,238.786102 666.996765,231.377792 
M578.238647,229.383728 
	C578.216431,212.892029 578.301758,196.398987 578.096313,179.909576 
	C578.044983,175.789978 577.435059,171.587616 576.435730,167.584595 
	C571.184326,146.549133 546.996582,141.121002 534.098877,155.623886 
	C533.534668,156.258362 532.632202,156.591980 531.758850,157.147415 
	C530.446289,149.993210 530.446289,149.989517 522.972168,149.977203 
	C519.973694,149.972275 516.953979,150.214249 513.981995,149.936707 
	C510.191376,149.582718 509.163452,151.061325 509.182495,154.756165 
	C509.319061,181.242386 509.304169,207.729874 509.192963,234.216339 
	C509.178833,237.585114 509.992523,239.073898 513.637512,238.836166 
	C517.950012,238.554886 522.310913,238.554642 526.622131,238.850327 
	C530.533325,239.118591 531.846680,237.797012 531.798401,233.803391 
	C531.612793,218.480118 531.675598,203.152451 531.808777,187.827850 
	C531.835999,184.698303 532.249084,181.490692 533.045654,178.466949 
	C534.492981,172.973190 539.410522,169.624557 544.990967,169.845993 
	C550.273987,170.055634 553.936157,173.274628 555.028503,179.203720 
	C555.627808,182.456528 555.810059,185.822510 555.829651,189.139542 
	C555.918335,204.131577 555.866028,219.124390 555.909119,234.116791 
	C555.915039,236.160095 555.232117,238.789047 558.710754,238.797836 
	C565.001648,238.813736 571.292542,238.802338 578.239563,238.802338 
	C578.239563,235.573456 578.239563,232.956085 578.238647,229.383728 
z"/>
<path fill="#050507" opacity="1.000000" stroke="none" 
	d="
M79.087128,238.703857 
	C75.808105,238.704620 73.015457,238.704620 69.889343,238.704620 
	C69.889343,197.810822 69.889343,157.407394 69.889343,116.612366 
	C82.550255,116.612366 95.093208,116.612366 108.257446,116.612366 
	C108.257446,130.272690 108.257446,143.847992 108.257446,157.792725 
	C116.425667,157.792725 123.980232,157.792725 132.249878,157.792725 
	C132.249878,150.840302 132.249252,144.074326 132.250092,137.308350 
	C132.250809,131.643707 132.095932,125.971504 132.367325,120.319809 
	C132.433853,118.934418 133.871567,116.459373 134.720886,116.441124 
	C146.660950,116.184608 158.608307,116.266884 170.846588,116.266884 
	C170.846588,157.246506 170.846588,197.641251 170.846588,238.704086 
	C161.498459,238.704086 152.382385,238.704041 143.266312,238.704102 
	C132.242508,238.704178 132.247269,238.704208 132.253098,227.639542 
	C132.257660,218.975967 132.105270,210.308914 132.314682,201.650482 
	C132.400665,198.096329 131.587418,196.450806 127.645500,196.697495 
	C122.667084,197.009033 117.647217,196.923965 112.658295,196.708099 
	C109.350388,196.564987 108.295609,197.809891 108.340408,201.050049 
	C108.490128,211.877533 108.230133,222.712692 108.502022,233.535477 
	C108.608810,237.785980 107.164223,238.954285 103.061325,238.794632 
	C95.242706,238.490356 87.403915,238.704300 79.087128,238.703857 
z"/>
<path fill="#0A0A0B" opacity="1.000000" stroke="none" 
	d="
M368.997498,148.999466 
	C369.269775,148.791412 369.431732,148.517975 369.764587,147.730865 
	C370.963135,144.509766 371.880432,141.737015 372.797729,138.964264 
	C373.035248,138.422287 373.272736,137.880295 373.804352,136.821960 
	C376.131226,130.879135 378.295288,125.496796 380.139832,120.007103 
	C381.024719,117.373543 382.428802,116.350197 385.192596,116.416786 
	C391.321808,116.564453 397.464417,116.297043 403.584686,116.573021 
	C405.021851,116.637825 406.392029,118.187904 407.792999,119.054672 
	C407.698120,127.678017 407.526917,136.301315 407.522125,144.924713 
	C407.505157,175.466324 407.545013,206.007965 407.196167,237.156769 
	C400.573486,237.986496 394.318481,238.294174 388.061798,238.334076 
	C387.186218,238.339661 386.302246,237.031143 385.422180,236.330933 
	C385.543823,224.761337 385.718170,213.191986 385.772034,201.622070 
	C385.824432,190.368759 385.753448,179.114853 385.799683,167.140808 
	C385.773010,165.137711 385.683289,163.854980 385.593536,162.572266 
	C380.806580,172.241730 376.964264,181.891357 373.152557,191.553116 
	C372.982666,191.983780 373.092194,192.524719 373.071594,193.014297 
	C372.242096,194.882629 371.412598,196.750961 370.282837,199.193146 
	C368.084900,204.510468 366.103516,209.222534 364.310028,214.005112 
	C361.883392,220.475998 353.740692,222.277924 348.285400,217.467072 
	C348.236206,217.125946 348.186981,216.784836 348.008728,215.867432 
	C344.444031,206.942322 341.008392,198.593491 337.572723,190.244659 
	C337.073486,188.717468 336.574249,187.190262 335.937073,185.002884 
	C334.943878,182.743561 334.088623,181.144409 333.233368,179.545273 
	C332.944305,178.536621 332.655243,177.527954 332.215332,175.879333 
	C330.391815,170.897446 328.719147,166.555511 327.046478,162.213562 
	C326.637360,162.339478 326.228241,162.465408 325.819153,162.591339 
	C325.745392,163.872833 325.607941,165.154312 325.607361,166.435837 
	C325.597046,188.759766 325.531250,211.084152 325.675537,233.407166 
	C325.700348,237.248398 324.701294,238.928894 320.600586,238.571930 
	C316.797211,238.240860 312.928558,238.281189 309.115601,238.546066 
	C305.331787,238.808899 304.260712,237.325333 304.312805,233.658112 
	C304.497345,220.666168 304.384979,207.670029 304.389130,194.675491 
	C304.396881,170.352386 304.498993,146.028625 304.329468,121.706772 
	C304.300140,117.499352 305.629181,116.051964 309.743713,116.396042 
	C313.217743,116.686539 316.735718,116.444916 320.234253,116.449440 
	C329.968262,116.462029 329.955597,116.469536 333.640381,125.242546 
	C334.146912,126.448517 334.852112,127.571045 335.465332,128.732208 
	C335.598297,129.306198 335.731232,129.880188 335.960693,131.093155 
	C337.516449,135.402054 338.975708,139.071976 340.434967,142.741898 
	C340.591888,143.316696 340.748840,143.891495 341.030640,145.084854 
	C343.268402,151.044128 345.381287,156.384827 347.494202,161.725525 
	C347.638489,162.303482 347.782745,162.881439 348.016785,164.075363 
	C349.241241,167.365234 350.375916,170.039139 351.510620,172.713043 
	C351.630310,173.297531 351.749969,173.882019 352.005371,175.086487 
	C353.254883,178.634964 354.368652,181.563461 355.482391,184.491959 
	C355.909180,184.435135 356.335999,184.378326 356.762787,184.321503 
	C359.148529,177.209122 361.534302,170.096741 363.920044,162.984360 
	C364.269562,162.202301 364.619080,161.420242 365.256256,160.112030 
	C366.695099,156.057053 367.846283,152.528259 368.997498,148.999466 
z"/>
<path fill="#09090A" opacity="1.000000" stroke="none" 
	d="
M666.996948,231.858414 
	C666.933167,238.786102 666.933167,238.783890 660.456604,238.769638 
	C657.459595,238.763031 654.462646,238.767258 651.465637,238.765976 
	C645.438538,238.763397 645.438538,238.763229 643.906799,233.729553 
	C639.344604,235.850937 634.939453,238.719147 630.113770,239.987350 
	C616.384399,243.595490 603.267395,238.222092 595.652466,225.076630 
	C583.944763,204.865936 583.856079,183.926910 595.866394,163.904633 
	C606.479248,146.212082 625.547302,143.158051 642.241516,155.277161 
	C642.608521,155.543625 643.091675,155.650269 644.275085,156.150085 
	C644.434021,154.116119 644.671265,152.423798 644.681335,150.730118 
	C644.740784,140.740540 644.858765,130.749008 644.710754,120.761772 
	C644.659790,117.324471 645.710510,115.952377 649.273132,116.179230 
	C653.418579,116.443192 657.616211,116.500122 661.750427,116.156807 
	C665.972656,115.806198 667.082031,117.374535 667.065979,121.489166 
	C666.926575,157.119293 666.993652,192.750229 666.999146,228.380920 
	C666.999268,229.379883 666.997559,230.378830 666.996948,231.858414 
M627.406616,169.978729 
	C619.696716,169.935944 614.389099,173.908783 611.352234,180.574921 
	C607.155823,189.786209 607.017456,199.378723 611.330505,208.571960 
	C617.218262,221.121780 631.281982,223.147705 640.130188,212.545746 
	C647.648071,203.537750 647.881226,193.032318 643.683350,182.476028 
	C640.947205,175.595398 636.025757,170.901566 627.406616,169.978729 
z"/>
<path fill="#09090A" opacity="1.000000" stroke="none" 
	d="
M424.757812,162.961136 
	C425.244324,162.380539 425.730804,161.799957 426.630005,160.846436 
	C429.002014,158.300293 430.961273,156.127090 432.920563,153.953888 
	C432.920563,153.953888 432.989410,153.992065 433.325317,153.929810 
	C436.990265,152.031143 440.319305,150.194748 443.648346,148.358337 
	C444.245056,148.293701 444.841797,148.229050 446.161316,148.122299 
	C449.935822,147.959091 452.987579,147.838013 456.039307,147.716919 
	C456.473083,147.833160 456.906830,147.949402 457.975067,148.193405 
	C463.601288,150.712418 468.593079,153.103668 473.786255,155.591431 
	C473.706848,154.776291 473.617249,153.856613 473.527618,152.936920 
	C473.658356,152.501465 473.789124,152.066010 474.263031,151.127747 
	C480.300171,150.463196 485.995026,150.177231 491.687592,150.218094 
	C493.321533,150.229828 494.948730,151.185669 496.579010,151.708649 
	C496.486450,176.859726 496.392761,202.010788 496.302856,227.161865 
	C496.293304,229.827484 496.305664,232.493179 496.207947,235.948090 
	C494.729004,237.347580 493.381073,238.380341 491.964844,238.484467 
	C488.484894,238.740356 484.971222,238.489334 481.475372,238.589523 
	C477.275543,238.709915 472.747101,239.465805 473.691406,232.539795 
	C472.751923,232.925308 472.239532,233.001556 471.922729,233.291504 
	C471.075745,234.066742 470.312683,234.933655 469.516296,235.764130 
	C469.516266,235.764130 469.149536,235.766403 468.734131,235.936951 
	C466.336639,237.292755 464.354584,238.478012 462.372528,239.663269 
	C462.047058,239.673737 461.721558,239.684219 460.769165,239.779785 
	C448.218384,243.047363 438.247650,239.094818 429.295563,231.421036 
	C429.295563,231.421036 429.221588,231.097916 428.999420,230.736359 
	C427.577179,229.127396 426.377075,227.880005 425.176971,226.632629 
	C425.176971,226.632629 425.173920,226.241776 425.010590,225.795441 
	C423.961182,224.100403 423.075073,222.851669 422.188995,221.602951 
	C421.812714,220.584534 421.436432,219.566116 420.843689,217.923492 
	C419.341095,211.636078 417.423981,206.026459 416.937164,200.295334 
	C416.393616,193.896378 417.148621,187.387115 417.338470,180.925858 
	C417.536133,180.504990 417.733795,180.084106 418.155518,179.076752 
	C419.223022,175.655167 420.066437,172.820068 420.909851,169.984985 
	C421.206085,169.791779 421.382507,169.520584 421.705597,168.748322 
	C422.900665,166.537170 423.829224,164.749146 424.757812,162.961136 
M448.566742,217.231262 
	C457.812408,220.627579 464.155853,219.071121 469.940765,211.986771 
	C477.570892,202.642792 477.152435,184.603714 469.099304,175.714249 
	C462.700684,168.651138 452.739197,167.735153 445.819733,173.329971 
	C433.991058,182.894226 434.491333,209.142990 448.566742,217.231262 
z"/>
<path fill="#0B0B0B" opacity="1.000000" stroke="none" 
	d="
M578.239136,229.861237 
	C578.239563,232.956085 578.239563,235.573456 578.239563,238.802338 
	C571.292542,238.802338 565.001648,238.813736 558.710754,238.797836 
	C555.232117,238.789047 555.915039,236.160095 555.909119,234.116791 
	C555.866028,219.124390 555.918335,204.131577 555.829651,189.139542 
	C555.810059,185.822510 555.627808,182.456528 555.028503,179.203720 
	C553.936157,173.274628 550.273987,170.055634 544.990967,169.845993 
	C539.410522,169.624557 534.492981,172.973190 533.045654,178.466949 
	C532.249084,181.490692 531.835999,184.698303 531.808777,187.827850 
	C531.675598,203.152451 531.612793,218.480118 531.798401,233.803391 
	C531.846680,237.797012 530.533325,239.118591 526.622131,238.850327 
	C522.310913,238.554642 517.950012,238.554886 513.637512,238.836166 
	C509.992523,239.073898 509.178833,237.585114 509.192963,234.216339 
	C509.304169,207.729874 509.319061,181.242386 509.182495,154.756165 
	C509.163452,151.061325 510.191376,149.582718 513.981995,149.936707 
	C516.953979,150.214249 519.973694,149.972275 522.972168,149.977203 
	C530.446289,149.989517 530.446289,149.993210 531.758850,157.147415 
	C532.632202,156.591980 533.534668,156.258362 534.098877,155.623886 
	C546.996582,141.121002 571.184326,146.549133 576.435730,167.584595 
	C577.435059,171.587616 578.044983,175.789978 578.096313,179.909576 
	C578.301758,196.398987 578.216431,212.892029 578.239136,229.861237 
z"/>
<path fill="#09090A" opacity="1.000000" stroke="none" 
	d="
M749.795471,166.315216 
	C750.130188,167.026901 750.464844,167.738602 750.915161,169.072784 
	C752.067139,171.787811 753.103394,173.880341 754.139648,175.972885 
	C754.209839,176.409729 754.280151,176.846573 754.423157,177.957031 
	C757.085510,189.451859 756.465942,200.292755 754.695374,211.140747 
	C754.497742,211.540298 754.300110,211.939850 753.815979,212.884186 
	C752.699219,215.623856 751.868958,217.818771 751.038696,220.013687 
	C750.639343,220.670273 750.240051,221.326843 749.471558,222.375366 
	C748.308960,224.089722 747.515564,225.412109 746.722168,226.734497 
	C746.722107,226.734482 747.002441,226.990967 746.549072,226.939117 
	C745.020325,228.222473 743.944946,229.557693 742.869507,230.892883 
	C742.869507,230.892868 742.978333,230.987808 742.610229,230.982330 
	C741.346680,231.899063 740.451294,232.821274 739.555908,233.743500 
	C738.875427,234.148407 738.195007,234.553299 736.950439,235.121643 
	C733.709351,236.697006 731.032349,238.108887 728.355347,239.520752 
	C727.756958,239.617050 727.158569,239.713348 725.862793,239.887131 
	C718.774536,239.985321 712.383728,240.006042 705.992920,240.026764 
	C705.193665,239.748428 704.394470,239.470108 703.102905,238.899384 
	C698.397522,236.091461 694.184387,233.575928 689.971252,231.060394 
	C689.140564,230.151993 688.309814,229.243591 687.202759,227.826477 
	C684.440918,223.331650 681.955383,219.345520 679.469849,215.359406 
	C679.277588,214.465942 679.085388,213.572495 678.759521,212.024719 
	C678.052979,209.587448 677.480225,207.804459 676.907410,206.021484 
	C676.852661,205.277298 676.797913,204.533127 676.721191,203.047714 
	C676.393311,200.221191 676.087463,198.135895 675.781494,196.050613 
	C675.847046,194.952423 675.912598,193.854233 676.111938,192.055237 
	C676.297119,189.535568 676.348389,187.716736 676.399658,185.897888 
	C676.565430,185.169388 676.731201,184.440887 677.115479,183.122696 
	C677.451172,181.666626 677.568420,180.800262 677.685669,179.933899 
	C677.811340,179.511932 677.937012,179.089966 678.275391,178.075592 
	C680.020813,173.664902 681.553467,169.846634 683.086182,166.028381 
	C683.086182,166.028381 683.361633,165.901291 683.696289,165.648285 
	C684.658325,164.250412 685.285767,163.105530 685.913208,161.960663 
	C687.249023,160.602753 688.584839,159.244843 690.398865,157.553467 
	C692.399292,155.914566 693.921570,154.609131 695.443787,153.303680 
	C696.142944,152.972336 696.842041,152.640991 698.125916,152.145569 
	C701.321289,150.795441 703.931946,149.609360 706.542603,148.423279 
	C706.874878,148.499573 707.201477,148.479950 707.927124,148.403839 
	C708.883362,148.270111 709.434631,148.096954 709.985962,147.923798 
	C710.421875,147.915970 710.857849,147.908142 712.045288,147.928162 
	C715.555603,147.883255 718.314392,147.810501 721.073242,147.737732 
	C722.589355,147.987411 724.105469,148.237061 726.196350,148.801208 
	C729.520142,150.059906 732.269226,151.004150 735.018250,151.948395 
	C735.018250,151.948395 735.251770,152.232040 735.564331,152.551727 
	C737.935303,154.195892 739.993713,155.520355 742.052063,156.844818 
	C742.385071,157.252579 742.718079,157.660324 743.325317,158.525787 
	C744.270508,159.499359 744.941467,160.015244 745.612366,160.531113 
	C745.612366,160.531113 745.719849,160.853516 745.900635,161.259338 
	C747.319397,163.215164 748.557434,164.765198 749.795471,166.315216 
M703.104980,213.251221 
	C706.851013,218.781616 712.191650,221.008255 718.643066,220.130112 
	C725.147095,219.244781 729.458191,215.394730 731.649414,209.178909 
	C735.282349,198.873413 735.192078,188.651489 731.169922,178.454651 
	C728.611511,171.968475 723.642944,168.702377 716.967712,168.489487 
	C710.094177,168.270279 704.454468,171.174637 701.812805,177.805634 
	C697.172058,189.455078 697.107300,201.150177 703.104980,213.251221 
z"/>
<path fill="#070808" opacity="1.000000" stroke="none" 
	d="
M205.067749,238.242249 
	C199.422791,238.401596 193.774094,238.714630 188.136383,238.577087 
	C187.134888,238.552643 186.022629,236.755432 185.268005,235.580078 
	C184.888977,234.989731 185.197220,233.957138 185.197296,233.124542 
	C185.200348,195.990326 185.280151,158.855774 185.106079,121.722382 
	C185.085327,117.293991 186.300522,115.963280 190.707352,116.108307 
	C200.188751,116.420326 209.692993,116.389160 219.176682,116.113503 
	C223.152115,115.997948 224.273468,117.216896 224.250443,121.172958 
	C224.103104,146.483002 224.202148,171.794479 224.028671,197.843948 
	C217.580704,211.802368 211.324219,225.022308 205.067749,238.242249 
z"/>
<path fill="#10ACE2" opacity="1.000000" stroke="none" 
	d="
M205.475342,238.450104 
	C211.324219,225.022308 217.580704,211.802368 224.077301,198.312851 
	C238.305847,198.085938 252.296478,198.280762 266.281372,198.078644 
	C270.487701,198.017868 271.824432,199.386902 271.744568,203.492935 
	C271.543854,213.815369 271.624054,224.145172 271.730713,234.470566 
	C271.763580,237.654449 270.585419,238.916443 267.333038,238.892838 
	C246.850174,238.744232 226.366409,238.721954 205.475342,238.450104 
z"/>
<path fill="#DBDBDC" opacity="1.000000" stroke="none" 
	d="
M335.607178,128.331192 
	C334.852112,127.571045 334.146912,126.448517 333.640381,125.242546 
	C329.955597,116.469536 329.968262,116.462029 320.234253,116.449440 
	C316.735718,116.444916 313.217743,116.686539 309.743713,116.396042 
	C305.629181,116.051964 304.300140,117.499352 304.329468,121.706772 
	C304.498993,146.028625 304.396881,170.352386 304.389130,194.675491 
	C304.384979,207.670029 304.497345,220.666168 304.312805,233.658112 
	C304.260712,237.325333 305.331787,238.808899 309.115601,238.546066 
	C312.928558,238.281189 316.797211,238.240860 320.600586,238.571930 
	C324.701294,238.928894 325.700348,237.248398 325.675537,233.407166 
	C325.531250,211.084152 325.597046,188.759766 325.607361,166.435837 
	C325.607941,165.154312 325.745392,163.872833 325.819153,162.591339 
	C326.228241,162.465408 326.637360,162.339478 327.046478,162.213562 
	C328.719147,166.555511 330.391815,170.897446 332.030212,175.620117 
	C330.697845,174.273041 329.399689,172.545212 327.662903,170.233551 
	C327.437744,172.571426 327.066956,174.658768 327.062103,176.746948 
	C327.017059,196.060822 326.936096,215.375763 327.115356,234.688080 
	C327.152924,238.732086 326.106934,240.430283 321.832794,240.128265 
	C317.193848,239.800461 312.507446,239.897888 307.854095,240.097687 
	C304.099548,240.258881 302.937714,238.633774 302.944275,235.050583 
	C303.014740,196.589249 303.006470,158.127716 302.942383,119.666359 
	C302.936737,116.279228 304.142426,114.824089 307.621490,114.906792 
	C313.944855,115.057098 320.281128,115.121719 326.598938,114.880379 
	C330.405548,114.734962 332.562164,116.096886 333.419525,119.820656 
	C334.049652,122.557533 334.962311,125.229362 335.607178,128.331192 
z"/>
<path fill="#DBDBDC" opacity="1.000000" stroke="none" 
	d="
M408.089661,118.836411 
	C406.392029,118.187904 405.021851,116.637825 403.584686,116.573021 
	C397.464417,116.297043 391.321808,116.564453 385.192596,116.416786 
	C382.428802,116.350197 381.024719,117.373543 380.139832,120.007103 
	C378.295288,125.496796 376.131226,130.879135 373.813049,136.523987 
	C375.508575,129.999405 377.397491,123.226196 379.590302,116.552841 
	C379.855804,115.744820 381.753693,115.047386 382.908264,115.026421 
	C390.400391,114.890381 397.896454,114.916771 405.390503,114.978989 
	C407.674042,114.997955 409.403381,115.748756 408.089661,118.836411 
z"/>
<path fill="#E0E0E0" opacity="1.000000" stroke="none" 
	d="
M417.023071,181.078033 
	C417.148621,187.387115 416.393616,193.896378 416.937164,200.295334 
	C417.423981,206.026459 419.341095,211.636078 420.625000,217.677460 
	C419.859924,217.493973 418.583923,217.058197 418.410675,216.351944 
	C415.568970,204.766327 412.902405,193.144913 417.023071,181.078033 
z"/>
<path fill="#DBDBDC" opacity="1.000000" stroke="none" 
	d="
M348.178131,217.892181 
	C353.740692,222.277924 361.883392,220.475998 364.310028,214.005112 
	C366.103516,209.222534 368.084900,204.510468 370.257782,199.530975 
	C369.432098,203.344879 368.355408,207.401657 367.209412,211.438751 
	C366.987396,212.220825 366.475586,212.917267 366.129700,213.668060 
	C362.232422,222.127029 360.856628,223.033264 351.692169,221.783798 
	C350.352448,221.601135 349.271515,219.520004 348.178131,217.892181 
z"/>
<path fill="#E0E0E0" opacity="1.000000" stroke="none" 
	d="
M429.213867,231.796661 
	C438.247650,239.094818 448.218384,243.047363 460.571228,239.933105 
	C458.257507,240.981186 455.488464,242.857330 452.776886,242.777664 
	C443.567078,242.507034 434.968719,240.247665 429.213867,231.796661 
z"/>
<path fill="#E0E0E0" opacity="1.000000" stroke="none" 
	d="
M469.900513,235.887299 
	C470.312683,234.933655 471.075745,234.066742 471.922729,233.291504 
	C472.239532,233.001556 472.751923,232.925308 473.691406,232.539795 
	C472.747101,239.465805 477.275543,238.709915 481.475372,238.589523 
	C484.971222,238.489334 488.484894,238.740356 491.964844,238.484467 
	C493.381073,238.380341 494.729004,237.347580 496.339233,236.336060 
	C498.710541,238.601242 497.054169,239.880127 494.650391,239.963394 
	C488.238495,240.185486 481.792480,240.325363 475.407867,239.852264 
	C473.615112,239.719406 471.987854,237.352585 469.900513,235.887299 
z"/>
<path fill="#C6C6C6" opacity="1.000000" stroke="none" 
	d="
M754.992981,210.987610 
	C756.465942,200.292755 757.085510,189.451859 754.595520,178.243835 
	C755.545227,180.103867 756.857605,182.289810 757.163208,184.608414 
	C758.328064,193.447403 759.199707,202.331558 754.992981,210.987610 
z"/>
<path fill="#DBDBDC" opacity="1.000000" stroke="none" 
	d="
M373.421509,192.961472 
	C373.092194,192.524719 372.982666,191.983780 373.152557,191.553116 
	C376.964264,181.891357 380.806580,172.241730 385.593536,162.572266 
	C385.683289,163.854980 385.773010,165.137711 385.661926,166.756805 
	C383.364655,171.686066 381.258179,176.274399 379.174866,180.873184 
	C377.360168,184.878876 375.571533,188.896378 373.421509,192.961472 
z"/>
<path fill="#DBDBDC" opacity="1.000000" stroke="none" 
	d="
M363.566528,163.038544 
	C361.534302,170.096741 359.148529,177.209122 356.762787,184.321503 
	C356.335999,184.378326 355.909180,184.435135 355.482391,184.491959 
	C354.368652,181.563461 353.254883,178.634964 352.176392,175.334351 
	C353.456177,176.495743 354.700684,178.029236 356.226624,179.909546 
	C358.638245,174.104630 360.925659,168.598694 363.566528,163.038544 
z"/>
<path fill="#DBDBDC" opacity="1.000000" stroke="none" 
	d="
M337.418091,190.637146 
	C341.008392,198.593491 344.444031,206.942322 347.843506,215.663086 
	C346.249512,213.109894 344.431854,210.290298 343.191376,207.236267 
	C341.028076,201.910141 339.220276,196.439636 337.418091,190.637146 
z"/>
<path fill="#E0E0E0" opacity="1.000000" stroke="none" 
	d="
M496.723175,151.268036 
	C494.948730,151.185669 493.321533,150.229828 491.687592,150.218094 
	C485.995026,150.177231 480.300171,150.463196 474.209534,150.787445 
	C474.502625,150.065582 475.158936,148.445663 475.887329,148.412552 
	C482.019257,148.133911 488.167236,148.035324 494.302307,148.194321 
	C495.179474,148.217056 496.013397,149.908356 496.723175,151.268036 
z"/>
<path fill="#DBDBDC" opacity="1.000000" stroke="none" 
	d="
M385.264587,236.769135 
	C386.302246,237.031143 387.186218,238.339661 388.061798,238.334076 
	C394.318481,238.294174 400.573486,237.986496 407.254456,237.583649 
	C407.032318,238.267731 406.408813,239.860397 405.733459,239.882675 
	C399.686707,240.082230 393.626587,240.115494 387.582367,239.884888 
	C386.724426,239.852173 385.930511,238.141434 385.264587,236.769135 
z"/>
<path fill="#D2D2D2" opacity="1.000000" stroke="none" 
	d="
M706.065308,240.408066 
	C712.383728,240.006042 718.774536,239.985321 725.595947,240.035828 
	C723.604126,240.918488 721.175110,242.413589 718.760803,242.390106 
	C714.548340,242.349197 710.344971,241.373352 706.065308,240.408066 
z"/>
<path fill="#E0E0E0" opacity="1.000000" stroke="none" 
	d="
M473.187988,152.917450 
	C473.617249,153.856613 473.706848,154.776291 473.786255,155.591431 
	C468.593079,153.103668 463.601288,150.712418 458.309998,148.136871 
	C461.829773,148.985031 465.669525,149.949478 469.456390,151.089615 
	C470.659454,151.451843 471.721680,152.281952 473.187988,152.917450 
z"/>
<path fill="#D2D2D2" opacity="1.000000" stroke="none" 
	d="
M689.956177,231.419067 
	C694.184387,233.575928 698.397522,236.091461 702.783447,238.908569 
	C697.145996,239.310165 693.135010,236.259338 689.956177,231.419067 
z"/>
<path fill="#DBDBDC" opacity="1.000000" stroke="none" 
	d="
M347.653137,161.315582 
	C345.381287,156.384827 343.268402,151.044128 341.206635,145.329407 
	C343.442535,150.272141 345.627319,155.588882 347.653137,161.315582 
z"/>
<path fill="#D2D2D2" opacity="1.000000" stroke="none" 
	d="
M679.332458,215.738892 
	C681.955383,219.345520 684.440918,223.331650 686.937561,227.666260 
	C681.642578,225.823074 680.981018,220.604309 679.332458,215.738892 
z"/>
<path fill="#D2D2D2" opacity="1.000000" stroke="none" 
	d="
M682.721558,166.041046 
	C681.553467,169.846634 680.020813,173.664902 678.255127,177.743713 
	C677.415161,173.276474 678.959656,169.329102 682.721558,166.041046 
z"/>
<path fill="#DBDBDC" opacity="1.000000" stroke="none" 
	d="
M340.606995,142.333832 
	C338.975708,139.071976 337.516449,135.402054 336.104523,131.352112 
	C337.694244,134.623306 339.236633,138.274536 340.606995,142.333832 
z"/>
<path fill="#E0E0E0" opacity="1.000000" stroke="none" 
	d="
M443.238586,148.227371 
	C440.319305,150.194748 436.990265,152.031143 433.308746,153.894104 
	C434.492859,149.005646 438.851135,148.873535 443.238586,148.227371 
z"/>
<path fill="#DBDBDC" opacity="1.000000" stroke="none" 
	d="
M368.640076,149.051910 
	C367.846283,152.528259 366.695099,156.057053 365.253998,159.788666 
	C366.070251,156.362427 367.176453,152.733383 368.640076,149.051910 
z"/>
<path fill="#E0E0E0" opacity="1.000000" stroke="none" 
	d="
M455.930542,147.350311 
	C452.987579,147.838013 449.935822,147.959091 446.434174,147.989914 
	C448.960938,144.345459 452.415466,145.923843 455.930542,147.350311 
z"/>
<path fill="#E0E0E0" opacity="1.000000" stroke="none" 
	d="
M420.561340,170.035950 
	C420.066437,172.820068 419.223022,175.655167 418.111328,178.725433 
	C418.632965,176.002716 419.422882,173.044815 420.561340,170.035950 
z"/>
<path fill="#C6C6C6" opacity="1.000000" stroke="none" 
	d="
M720.964661,147.379028 
	C718.314392,147.810501 715.555603,147.883255 712.355347,147.818573 
	C714.894653,147.460846 717.875366,147.240601 720.964661,147.379028 
z"/>
<path fill="#E0E0E0" opacity="1.000000" stroke="none" 
	d="
M432.550385,153.926880 
	C430.961273,156.127090 429.002014,158.300293 426.707397,160.571167 
	C425.897858,156.344391 429.020233,155.106018 432.550385,153.926880 
z"/>
<path fill="#DBDBDC" opacity="1.000000" stroke="none" 
	d="
M351.648529,172.313843 
	C350.375916,170.039139 349.241241,167.365234 348.189270,164.322418 
	C349.443481,166.607224 350.614960,169.260941 351.648529,172.313843 
z"/>
<path fill="#C6C6C6" opacity="1.000000" stroke="none" 
	d="
M734.979675,151.589935 
	C732.269226,151.004150 729.520142,150.059906 726.578247,148.817749 
	C729.237305,149.423706 732.089233,150.327576 734.979675,151.589935 
z"/>
<path fill="#D2D2D2" opacity="1.000000" stroke="none" 
	d="
M728.741821,239.684784 
	C731.032349,238.108887 733.709351,236.697006 736.733887,235.328201 
	C734.430359,236.863800 731.779358,238.356308 728.741821,239.684784 
z"/>
<path fill="#C6C6C6" opacity="1.000000" stroke="none" 
	d="
M706.145020,148.269257 
	C703.931946,149.609360 701.321289,150.795441 698.340759,151.948456 
	C700.563049,150.648697 703.155273,149.381973 706.145020,148.269257 
z"/>
<path fill="#DBDBDC" opacity="1.000000" stroke="none" 
	d="
M372.451416,139.033020 
	C371.880432,141.737015 370.963135,144.509766 369.746460,147.488327 
	C370.333160,144.830002 371.219147,141.965881 372.451416,139.033020 
z"/>
<path fill="#C6C6C6" opacity="1.000000" stroke="none" 
	d="
M751.376099,219.959839 
	C751.868958,217.818771 752.699219,215.623856 753.804321,213.221207 
	C753.290588,215.310959 752.502014,217.608475 751.376099,219.959839 
z"/>
<path fill="#E0E0E0" opacity="1.000000" stroke="none" 
	d="
M462.767700,239.783844 
	C464.354584,238.478012 466.336639,237.292755 468.669067,236.108429 
	C467.067291,237.374374 465.115082,238.639389 462.767700,239.783844 
z"/>
<path fill="#D2D2D2" opacity="1.000000" stroke="none" 
	d="
M675.510986,196.298874 
	C676.087463,198.135895 676.393311,200.221191 676.568909,202.704010 
	C676.039246,200.916748 675.639832,198.731934 675.510986,196.298874 
z"/>
<path fill="#C6C6C6" opacity="1.000000" stroke="none" 
	d="
M742.041016,156.495697 
	C739.993713,155.520355 737.935303,154.195892 735.747864,152.560364 
	C737.755859,153.548401 739.892883,154.847488 742.041016,156.495697 
z"/>
<path fill="#C6C6C6" opacity="1.000000" stroke="none" 
	d="
M754.381287,175.767014 
	C753.103394,173.880341 752.067139,171.787811 751.061279,169.332535 
	C752.268738,171.166901 753.445862,173.364029 754.381287,175.767014 
z"/>
<path fill="#D2D2D2" opacity="1.000000" stroke="none" 
	d="
M676.090088,186.033936 
	C676.348389,187.716736 676.297119,189.535568 676.007812,191.653442 
	C675.773315,190.024963 675.776917,188.097473 676.090088,186.033936 
z"/>
<path fill="#C6C6C6" opacity="1.000000" stroke="none" 
	d="
M695.066040,153.214905 
	C693.921570,154.609131 692.399292,155.914566 690.536987,157.269165 
	C691.694031,155.920914 693.191162,154.523499 695.066040,153.214905 
z"/>
<path fill="#E0E0E0" opacity="1.000000" stroke="none" 
	d="
M424.383301,162.957855 
	C423.829224,164.749146 422.900665,166.537170 421.677856,168.501312 
	C422.258667,166.769806 423.133728,164.862198 424.383301,162.957855 
z"/>
<path fill="#D2D2D2" opacity="1.000000" stroke="none" 
	d="
M676.640137,206.218033 
	C677.480225,207.804459 678.052979,209.587448 678.580078,211.731186 
	C677.813782,210.199493 677.093262,208.307037 676.640137,206.218033 
z"/>
<path fill="#C6C6C6" opacity="1.000000" stroke="none" 
	d="
M749.870544,165.950867 
	C748.557434,164.765198 747.319397,163.215164 746.056824,161.326324 
	C747.336731,162.520523 748.641174,164.053513 749.870544,165.950867 
z"/>
<path fill="#E0E0E0" opacity="1.000000" stroke="none" 
	d="
M425.125122,227.009949 
	C426.377075,227.880005 427.577179,229.127396 428.838379,230.697235 
	C427.624084,229.808884 426.348663,228.598068 425.125122,227.009949 
z"/>
<path fill="#D2D2D2" opacity="1.000000" stroke="none" 
	d="
M743.231262,230.917938 
	C743.944946,229.557693 745.020325,228.222473 746.411011,226.808075 
	C745.681824,228.133591 744.637390,229.538284 743.231262,230.917938 
z"/>
<path fill="#DBDBDC" opacity="1.000000" stroke="none" 
	d="
M333.136169,179.922928 
	C334.088623,181.144409 334.943878,182.743561 335.771484,184.693588 
	C334.842224,183.463165 333.940582,181.881882 333.136169,179.922928 
z"/>
<path fill="#E0E0E0" opacity="1.000000" stroke="none" 
	d="
M422.103516,221.979492 
	C423.075073,222.851669 423.961182,224.100403 424.847809,225.687286 
	C423.904907,224.802322 422.961487,223.579178 422.103516,221.979492 
z"/>
<path fill="#D2D2D2" opacity="1.000000" stroke="none" 
	d="
M747.094360,226.758698 
	C747.515564,225.412109 748.308960,224.089722 749.423950,222.660797 
	C748.985840,223.963806 748.226196,225.373352 747.094360,226.758698 
z"/>
<path fill="#D2D2D2" opacity="1.000000" stroke="none" 
	d="
M685.538879,161.983154 
	C685.285767,163.105530 684.658325,164.250412 683.710632,165.497284 
	C683.981750,164.401413 684.573120,163.203537 685.538879,161.983154 
z"/>
<path fill="#D2D2D2" opacity="1.000000" stroke="none" 
	d="
M739.926392,233.820526 
	C740.451294,232.821274 741.346680,231.899063 742.569092,230.922989 
	C742.029663,231.878616 741.163269,232.888092 739.926392,233.820526 
z"/>
<path fill="#D2D2D2" opacity="1.000000" stroke="none" 
	d="
M677.383301,179.975861 
	C677.568420,180.800262 677.451172,181.666626 677.076965,182.748459 
	C676.906982,181.981903 676.993958,180.999863 677.383301,179.975861 
z"/>
<path fill="#C6C6C6" opacity="1.000000" stroke="none" 
	d="
M709.832275,147.707947 
	C709.434631,148.096954 708.883362,148.270111 708.152710,148.300903 
	C708.541809,147.936371 709.110168,147.714233 709.832275,147.707947 
z"/>
<path fill="#C6C6C6" opacity="1.000000" stroke="none" 
	d="
M745.692017,160.144653 
	C744.941467,160.015244 744.270508,159.499359 743.555908,158.654358 
	C744.265320,158.802872 745.018494,159.280533 745.692017,160.144653 
z"/>
<path fill="#F6F6F6" opacity="1.000000" stroke="none" 
	d="
M627.824829,169.998474 
	C636.025757,170.901566 640.947205,175.595398 643.683350,182.476028 
	C647.881226,193.032318 647.648071,203.537750 640.130188,212.545746 
	C631.281982,223.147705 617.218262,221.121780 611.330505,208.571960 
	C607.017456,199.378723 607.155823,189.786209 611.352234,180.574921 
	C614.389099,173.908783 619.696716,169.935944 627.824829,169.998474 
z"/>
<path fill="#F6F6F6" opacity="1.000000" stroke="none" 
	d="
M448.229065,217.051559 
	C434.491333,209.142990 433.991058,182.894226 445.819733,173.329971 
	C452.739197,167.735153 462.700684,168.651138 469.099304,175.714249 
	C477.152435,184.603714 477.570892,202.642792 469.940765,211.986771 
	C464.155853,219.071121 457.812408,220.627579 448.229065,217.051559 
z"/>
<path fill="#F6F6F7" opacity="1.000000" stroke="none" 
	d="
M702.906799,212.934067 
	C697.107300,201.150177 697.172058,189.455078 701.812805,177.805634 
	C704.454468,171.174637 710.094177,168.270279 716.967712,168.489487 
	C723.642944,168.702377 728.611511,171.968475 731.169922,178.454651 
	C735.192078,188.651489 735.282349,198.873413 731.649414,209.178909 
	C729.458191,215.394730 725.147095,219.244781 718.643066,220.130112 
	C712.191650,221.008255 706.851013,218.781616 702.906799,212.934067 
z"/>
</svg>